# xmcd
#
# Track frame offsets:
# 150
# 16665
# 35227
# 52115
# 70315
# 98065
# 116127
# 134115
# 157615
# 174465
# 193952
# 210440
# 232490
# 255765
# 280415
#
# Disc length: 4225 seconds
#
# Revision: 0
# Processed by: cddbd v1.5.1PL0 Copyright (c) Steve Scherf et al.
# Submitted via: Audion 3.0.2 (http://www.panic.com/audion/)
#
DISCID=dd107f0f
DTITLE=Weather Girls - Double tons of fun
DYEAR=1900
DGENRE=
TTITLE0=Wes
TTITLE1=We're gonna Party
TTITLE2=Sweet Thang
TTITLE3=Can u feel it
TTITLE4=We shall all be free
TTITLE5=Sexy Ghost
TTITLE6=Still I'am free
TTITLE7=Here goes my heart
TTITLE8=Love somebody tonight
TTITLE9=Happy - Happy
TTITLE10=I want to take you higher
TTITLE11=Can't let you go
TTITLE12=It's raining men
TTITLE13=My Way
TTITLE14=Alane
EXTD=
EXTT0=
EXTT1=
EXTT2=
EXTT3=
EXTT4=
EXTT5=
EXTT6=
EXTT7=
EXTT8=
EXTT9=
EXTT10=
EXTT11=
EXTT12=
EXTT13=
EXTT14=
PLAYORDER=
